/vscmnt/brussel_pixiu_data/_data_brussel/112/vsc11236/PredSimResults/SUBJ09mtu3D/worker4.mot
version=1
nRows=6
nColumns=50
inDegrees=yes
endheader
                time	         pelvis_tilt	         pelvis_list	     pelvis_rotation	           pelvis_tx	           pelvis_ty	           pelvis_tz	       hip_flexion_r	     hip_adduction_r	      hip_rotation_r	        knee_angle_r	       ankle_angle_r	         mtp_angle_r	       hip_flexion_l	     hip_adduction_l	      hip_rotation_l	        knee_angle_l	       ankle_angle_l	         mtp_angle_l	    lumbar_extension	      lumbar_bending	     lumbar_rotation	 ercspn_r/activation	 intobl_r/activation	 extobl_r/activation	    abd_r/activation	    add_r/activation	hamstrings_r/activation	bifemsh_r/activation	glut_max_r/activation	iliopsoas_r/activation	rect_fem_r/activation	  vasti_r/activation	gastroc_r/activation	 soleus_r/activation	tib_ant_r/activation	 ercspn_l/activation	 intobl_l/activation	 extobl_l/activation	    abd_l/activation	    add_l/activation	hamstrings_l/activation	bifemsh_l/activation	glut_max_l/activation	iliopsoas_l/activation	rect_fem_l/activation	  vasti_l/activation	gastroc_l/activation	 soleus_l/activation	tib_ant_l/activation	
          1.21068053	         -2.75737393	         -2.74082337	          8.33170802	          1.50124386	          0.99293294	         -0.00563566	         27.86329227	          0.09055809	         -8.43717432	         -7.27193538	          3.03789107	          0.22412369	        -13.44854667	         -4.28304711	         -3.74541801	        -11.75536209	          6.92540954	         34.01423149	        -14.24576168	          1.25341166	         -4.40626322	          0.04376553	          0.18398443	          0.03620554	          0.01201781	          0.20811559	          0.04718248	          0.03012704	          0.01434578	          0.12096662	          0.04351116	          0.03090866	          0.01483584	          0.01000021	          0.29644634	          0.01000000	          0.00999999	          0.01000000	          0.02864906	          0.00999999	          0.01013445	          0.19799115	          0.01503012	          0.03274954	          0.01000002	          0.01000000	          0.17784571	          0.29488101	          0.01201779	
          1.22278734	         -2.79593293	         -2.71771340	          8.29553626	          1.52021547	          0.99104918	         -0.00496487	         27.67017289	          0.24858852	         -8.57591582	         -8.35827641	          2.60237577	          0.24523140	        -14.17238488	         -4.43814145	         -4.22062924	        -12.27441810	          5.70557029	         35.73401104	        -13.82167632	          1.50505017	         -4.54435346	          0.03641726	          0.15309326	          0.03012660	          0.01000001	          0.25069591	          0.03926050	          0.02506869	          0.11261495	          0.10065620	          0.03620559	          0.03519915	          0.01234489	          0.01297382	          0.31113173	          0.03754762	          0.01000001	          0.01000000	          0.02383885	          0.03432604	          0.02113435	          0.16474826	          0.01250655	          0.09147801	          0.01000003	          0.01000002	          0.14798525	          0.26947094	          0.00999999	
          1.23489414	         -2.81261134	         -2.70613823	          8.22735628	          1.53968337	          0.98926728	         -0.00426292	         27.34571832	          0.37606618	         -8.56298854	         -9.74952794	          2.35924666	          0.20358439	        -14.77476911	         -4.61644845	         -4.72072396	        -13.09341051	          4.39195060	         37.42512849	        -13.35702987	          1.77513694	         -4.66550235	          0.03030278	          0.12738875	          0.02506831	          0.10526200	          0.23321948	          0.05333785	          0.02085965	          0.09429914	          0.08375593	          0.03012664	          0.02928920	          0.01201857	          0.01201779	          0.33246077	          0.03124335	          0.00999999	          0.01000001	          0.01983628	          0.02856266	          0.01758604	          0.13708687	          0.01040669	          0.09824796	          0.01000002	          0.01000001	          0.12313838	          0.23927661	          0.00999999	
          1.24700095	         -2.81283466	         -2.68765826	          8.11744930	          1.55932630	          0.98777797	         -0.00347719	         26.96957635	          0.49312019	         -8.57931211	        -11.10172885	          2.00037711	          0.20020756	        -15.15121190	         -4.80515638	         -5.24241745	        -14.35259029	          2.96785436	         39.03204372	        -12.88893086	          2.03767681	         -4.75973400	          0.02521506	          0.10600005	          0.02085932	          0.16698409	          0.24448699	          0.05195593	          0.01735730	          0.10558294	          0.06969322	          0.02506835	          0.02437169	          0.01000065	          0.01000000	          0.36113386	          0.04260991	          0.00999999	          0.01000000	          0.01650575	          0.02376697	          0.01463389	          0.11406986	          0.00999999	          0.11982794	          0.01000001	          0.01000002	          0.10246332	          0.19910183	          0.00999999	
          1.25910775	         -2.79794406	         -2.66769944	          7.96868253	          1.57882647	          0.98674816	         -0.00260420	         26.68774122	          0.59453048	         -8.64329855	        -12.62355975	          1.63192795	          0.16887652	        -15.19656290	         -5.01991998	         -5.77389014	        -16.19847180	          1.45440196	         40.42014861	        -12.45264095	          2.30073651	         -4.82286834	          0.02543504	          0.08820254	          0.01735702	          0.21236538	          0.26818473	          0.05605004	          0.01444300	          0.12574129	          0.05799166	          0.02085935	          0.14644033	          0.01000001	          0.01000000	          0.37955255	          0.06876014	          0.01000000	          0.01000000	          0.01373442	          0.06998052	          0.01732149	          0.09491743	          0.00999999	          0.15792462	          0.01000000	          0.01000000	          0.08525963	          0.16567244	          0.00999999	
          1.27121456	         -2.77093367	         -2.64610764	          7.78407866	          1.59796408	          0.98637262	         -0.00167107	         26.46313923	          0.68688558	         -8.72809376	        -14.27997712	          1.57881567	          0.12494175	        -14.81680306	         -5.26961072	         -6.33663017	        -18.75313543	         -0.14756381	         41.37517994	        -12.06987822	          2.56729868	         -4.85314544	          0.02506822	          0.07339324	          0.01444276	          0.22732500	          0.27423793	          0.05178775	          0.01201802	          0.17299647	          0.04825480	          0.01735704	          0.21556853	          0.01000001	          0.00999999	          0.37299340	          0.09102982	          0.01000000	          0.01000000	          0.01142840	          0.11223502	          0.01441357	          0.07898072	          0.00999999	          0.15091458	          0.01000000	          0.00999999	          0.07094445	          0.13785587	          0.00999999	
